# xmcd
#
# Track frame offsets:
#	150
#	18795
#	38460
#	61288
#	82807
#	102065
#	118977
#	146573
#	166459
#	188282
#	212607
#	241739
#	262799
#	280486
#	301047
#
# Disc length: 4267 seconds
#
# Revision: 0
# Processed by: cddbd v1.5.2PL0 Copyright (c) Steve Scherf et al.
# Submitted via: EZCDAudioConverter 2.0.7.1
#
DISCID=b210a90f
DTITLE=Meiway - Professeur
DYEAR=1900
DGENRE=
TTITLE0=Rouler moutou
TTITLE1=Couvre Feu (feat. black kent)
TTITLE2=Koukoumele
TTITLE3=Requiem N'zima 
TTITLE4=Pepe Soupe
TTITLE5=Coco (feat. Soum Bill)
TTITLE6=Assetou
TTITLE7=Comment ça va 
TTITLE8=La colère d'Attila 
TTITLE9=Attie Oye
TTITLE10=Agogo Dance
TTITLE11=Marriage
TTITLE12=Don't Say No
TTITLE13=Ayi
TTITLE14=Couvre Feu 
EXTD=
EXTT0=
EXTT1=
EXTT2=
EXTT3=
EXTT4=
EXTT5=
EXTT6=
EXTT7=
EXTT8=
EXTT9=
EXTT10=
EXTT11=
EXTT12=
EXTT13=
EXTT14=
PLAYORDER=
